<svg xmlns="http://www.w3.org/2000/svg" width="213.06" height="95.595" viewBox="0 0 213.06 95.595"><g id="Small_Scale" data-name="Small Scale"><g id="Group_13" data-name="Group 13" fill="#fff"><g id="Group_8" data-name="Group 8"><path id="Path_17" data-name="Path 17" d="M54.48 85.09h-3.94l-7.89 21.162h4.377l1.44-4.232h8.086l1.44 4.232h4.377zm-1.97 13.352h-2.836l2.826-8.305h.028l2.822 8.305z" transform="translate(-42.65 -42.573)"/><path id="Path_18" data-name="Path 18" d="M97.686 85.09h-3.942l-7.89 21.162h4.378l1.44-4.232h8.086l1.44 4.232h4.377zm-1.97 13.352h-2.837l2.82-8.305h.028l2.822 8.305z" transform="translate(-42.65 -42.573)"/><path id="Path_19" data-name="Path 19" d="M129.52 85.09v21.162h-4.292l-9.308-14.02h-.058v14.02h-4.173V85.09h4.172l9.41 14.3h.058v-14.3z" transform="translate(-42.65 -42.573)"/><path id="Path_20" data-name="Path 20" d="M142.044 88.843h-5.832V85.09h15.866v3.753h-5.86v17.41h-4.174z" transform="translate(-42.65 -42.573)"/><path id="Path_21" data-name="Path 21" d="M159.21 85.09h4.217v21.162h-4.217z" transform="translate(-42.65 -42.573)"/><path id="Path_22" data-name="Path 22" d="M72.285 106.252h3.654l7.893-21.162h-4.538l-5.16 15.2h-.046l-5.16-15.2H64.39l7.893 21.162h3.654" transform="translate(-42.65 -42.573)"/></g><g id="Group_12" data-name="Group 12"><g id="Group_10" data-name="Group 10"><g id="Group_9" data-name="Group 9"><path id="Path_23" data-name="Path 23" d="M218.73 134.94l.68-1.822a8.242 8.242 0 0 0 6.695 3.407c2.894 0 5.032-1.5 5.032-3.84 0-2.938-2.37-3.665-5.323-4.815s-6.254-2.312-6.254-5.818c0-3.04 2.748-5.337 6.268-5.337a10.576 10.576 0 0 1 6.444 2.356l-.644 1.726a9.11 9.11 0 0 0-5.814-2.438c-2.21 0-4.422 1.222-4.436 3.593-.015 2.546 2.312 3.244 5.018 4.32 3.476 1.382 6.53 2.342 6.53 6.24 0 3.476-3.04 5.658-6.82 5.658a9.9 9.9 0 0 1-7.376-3.228z" transform="translate(-42.65 -42.573)"/><path id="Path_24" data-name="Path 24" d="M244.938 118.684h-6.618v-1.6h15.01v1.6h-6.72V137.8h-1.67z" transform="translate(-42.65 -42.573)"/></g><path id="Path_25" data-name="Path 25" d="M209.936 132.358h-9.9L198 137.8h-1.79l7.73-20.72h2.086l7.73 20.72h-1.79zm-.6-1.6L205 119.12h-.028l-4.34 11.638z" transform="translate(-42.65 -42.573)"/><path id="Path_26" data-name="Path 26" d="M171.2 127.42c0-5.978 4.232-10.705 10.5-10.705 5.832 0 10.457 4.276 10.457 10.705 0 6.472-4.625 10.748-10.457 10.748-6.267 0-10.5-4.713-10.5-10.748zm19.184 0c0-5.382-3.883-9.048-8.683-9.048-5.22 0-8.726 4.073-8.726 9.048 0 5.017 3.5 9.09 8.727 9.09 4.8 0 8.685-3.695 8.685-9.09z" transform="translate(-42.65 -42.573)"/><path id="Path_27" data-name="Path 27" d="M158.173 138.168c-5.673 0-10.414-3.723-10.414-10.6 0-6.006 3.693-10.82 10.413-10.82a10.228 10.228 0 0 1 8.144 4.013l-1.295 1.063a8.726 8.726 0 0 0-6.85-3.418c-5.483 0-8.638 3.927-8.638 9.163 0 5.628 3.78 8.944 8.64 8.944a8.55 8.55 0 0 0 6.848-3.388l1.295 1.06a9.98 9.98 0 0 1-8.144 3.986z" transform="translate(-42.65 -42.573)"/></g><g id="Group_11" data-name="Group 11"><path id="Path_28" data-name="Path 28" d="M97.152 134.94l.68-1.822a8.243 8.243 0 0 0 6.694 3.407c2.894 0 5.033-1.5 5.033-3.84 0-2.938-2.372-3.665-5.325-4.815s-6.254-2.312-6.254-5.818c0-3.04 2.75-5.337 6.27-5.337a10.57 10.57 0 0 1 6.443 2.356l-.643 1.726a9.113 9.113 0 0 0-5.815-2.438c-2.21 0-4.42 1.222-4.435 3.593-.015 2.546 2.312 3.244 5.018 4.32 3.476 1.382 6.53 2.342 6.53 6.24 0 3.476-3.04 5.658-6.822 5.658a9.9 9.9 0 0 1-7.374-3.228z" transform="translate(-42.65 -42.573)"/><path id="Path_29" data-name="Path 29" d="M123.36 118.684h-6.618v-1.6h15.01v1.6h-6.72v19.12h-1.673z" transform="translate(-42.65 -42.573)"/><path id="Path_30" data-name="Path 30" d="M78.144 117.085H91.4v1.6H79.816v7.928h9.735v1.6h-9.733v7.987H91.4v1.6H78.145z" transform="translate(-42.65 -42.573)"/><path id="Path_31" data-name="Path 31" d="M72.444 117.084L65.26 137.8H63.4l-5.82-18.232h-.03L51.81 137.8h-1.856l-7.3-20.72h1.888l6.314 17.942h.062l5.635-17.94h2.027l5.725 18h.062l6.177-18z" transform="translate(-42.65 -42.573)"/></g></g></g><g id="Group_14" data-name="Group 14"><path id="Path_32" data-name="Path 32" d="M231.734 58.176l13.978 37.473-23.5-11.95 9.522-25.524m0-15.6L215.4 86.354l40.307 20.5-23.973-64.28z" fill="#ff4713" transform="translate(-42.65 -42.573)"/></g></g></svg>